# xmcd
#
# Track frame offsets:
#	150
#	18137
#	37246
#	54080
#	79970
#	109231
#	127667
#	145420
#	169939
#	196359
#	214765
#	230342
#
# Disc length: 3407 seconds
#
# Revision: 1
# Processed by: cddbd v1.4b41PL2 Copyright (c) Steve Scherf et al.
# Submitted via: audiograbber 1.80
#
DISCID=a00d4d0c
DTITLE=Blues Mafia - Homegrown
DYEAR=1900
DGENRE=
TTITLE0=Rock Mr. Blues
TTITLE1=Blues Party Tonight
TTITLE2=You Lift Me Up
TTITLE3=Trick Bag
TTITLE4=Daydream
TTITLE5=My Music
TTITLE6=Who's There
TTITLE7=Train Riding
TTITLE8=Folks May Call Me Lazy
TTITLE9=I'Ve Been Friendly Too Long
TTITLE10=River's Invitation
TTITLE11=Clarksdale Mississippi
EXTD=
EXTT0=
EXTT1=
EXTT2=
EXTT3=
EXTT4=
EXTT5=
EXTT6=
EXTT7=
EXTT8=
EXTT9=
EXTT10=
EXTT11=
PLAYORDER=
